<?xml version="1.0" encoding="iso-8859-1"?>
<!-- Generator: Adobe Illustrator 19.0.0, SVG Export Plug-In . SVG Version: 6.00 Build 0)  -->
<svg version="1.1" id="Capa_1" xmlns="http://www.w3.org/2000/svg" xmlns:xlink="http://www.w3.org/1999/xlink" x="0px" y="0px"
	 viewBox="0 0 470.032 470.032" style="enable-background:new 0 0 470.032 470.032;" xml:space="preserve">
<g>
	<path d="M198.133,310.254l-32.241-55.843c4.712-1.741,9.28-3.881,13.687-6.425c4.407-2.544,8.543-5.439,12.405-8.646l19.213,33.279
		c1.389,2.406,3.91,3.751,6.502,3.751c1.272,0,2.562-0.324,3.743-1.006c3.588-2.073,4.816-6.659,2.745-10.245l-21.176-36.677
		c11.942-14.021,19.912-31.936,23.087-52.505c4.845-31.385-2.079-65.284-19.498-95.454C181.218,36.515,136.931,8.107,93.776,8.107
		c-16.535,0-31.927,4.046-45.748,12.025C22.968,34.601,6.446,60.189,1.507,92.182c-4.845,31.385,2.079,65.284,19.498,95.454
		c25.382,43.963,69.668,72.372,112.826,72.375c5.854,0,11.553-0.517,17.094-1.523l34.218,59.267c1.389,2.406,3.91,3.751,6.502,3.751
		c1.272,0,2.56-0.324,3.741-1.005C198.976,318.428,200.205,313.841,198.133,310.254z M93.776,23.107
		c15.021,0,30.243,4.015,44.566,11.3L15.183,105.512c0.207-3.713,0.586-7.398,1.148-11.042
		c4.232-27.411,18.152-49.198,39.196-61.349C67.04,26.476,79.908,23.107,93.776,23.107z M173.791,105.094l-37.16-7.982
		c-3.767-0.805-7.532,1.365-8.713,5.031l-11.664,36.169l-37.156-7.983c-3.764-0.807-7.531,1.365-8.714,5.031L58.72,171.529
		l-32.557-6.996c-5.875-13.662-9.479-27.829-10.696-41.863l137.566-79.424c11.469,8.038,22.014,18.245,30.97,30.189L173.791,105.094
		z M62.201,187.619c0.529,0.113,1.058,0.168,1.581,0.168c3.192,0,6.117-2.049,7.133-5.199l11.664-36.169l37.156,7.983
		c3.766,0.806,7.532-1.366,8.714-5.031l11.664-36.17l37.16,7.982c3.764,0.808,7.531-1.366,8.713-5.03l8.556-26.526
		c9.99,17.813,15.962,36.935,17.6,55.821L74.575,224.871c-15.411-10.8-29.147-25.521-39.605-43.103L62.201,187.619z
		 M133.832,245.011c-15.022-0.001-30.243-4.016-44.566-11.301l123.158-71.105c-0.207,3.713-0.586,7.398-1.148,11.042
		c-3.013,19.516-10.941,36.177-22.85,48.542c-0.087,0.088-0.173,0.177-0.254,0.269c-4.755,4.89-10.138,9.1-16.092,12.538
		c-5.981,3.453-12.329,6.013-18.99,7.684c-0.052,0.011-0.103,0.025-0.155,0.038C146.821,244.238,140.446,245.011,133.832,245.011z"
		/>
	<path d="M468.524,92.182c-4.939-31.993-21.46-57.581-46.521-72.05c-13.821-7.979-29.213-12.025-45.748-12.025
		c-43.155,0-87.442,28.408-112.826,72.375c-17.419,30.17-24.343,64.069-19.499,95.454c3.176,20.569,11.146,38.484,23.087,52.505
		l-36.333,62.93l-26.058,45.134l-46.365,80.307c-8.29,14.357-3.353,32.782,11.005,41.071c4.723,2.727,9.884,4.022,14.982,4.022
		c10.398-0.001,20.527-5.394,26.089-15.027l24.677-42.742l24.677,42.742c4.016,6.955,10.499,11.93,18.256,14.009
		c2.59,0.693,5.219,1.037,7.831,1.037c5.209,0,10.352-1.366,14.984-4.041c6.955-4.016,11.93-10.499,14.009-18.257
		c2.079-7.757,1.012-15.859-3.004-22.814l-15.02-26.015c-0.001-0.002-27.016-46.793-27.016-46.793l49.373-85.517
		c5.543,1.007,11.245,1.524,17.094,1.524c43.155,0,87.442-28.408,112.826-72.375C466.445,157.466,473.37,123.567,468.524,92.182z
		 M300.284,435.745c-1.042,3.887-3.535,7.136-7.02,9.148c-3.485,2.011-7.545,2.546-11.433,1.505
		c-3.887-1.042-7.136-3.534-9.148-7.02l-11.271-19.521l26.096-15.066l11.271,19.521
		C300.791,427.798,301.326,431.858,300.284,435.745z M253.912,406.867l-10.237-17.73l17.397-30.133l18.935,32.797L253.912,406.867z
		 M176.767,444.894c-3.485-2.013-5.978-5.261-7.02-9.148s-0.507-7.947,1.505-11.433l11.271-19.521l26.096,15.066l-11.271,19.521
		C193.194,446.572,183.96,449.047,176.767,444.894z M216.119,406.867l-26.096-15.067l88.023-152.461
		c3.862,3.207,7.999,6.102,12.406,8.646c4.407,2.544,8.975,4.684,13.687,6.425L216.119,406.867z M317.074,242.711
		c-0.04-0.01-0.08-0.021-0.12-0.029c-6.666-1.671-13.018-4.232-19.001-7.686c-5.956-3.438-11.339-7.65-16.096-12.542
		c-0.079-0.088-0.162-0.174-0.245-0.259c-11.913-12.367-19.842-29.03-22.855-48.548c-0.563-3.644-0.942-7.329-1.148-11.042
		l123.16,71.106c-14.324,7.286-29.545,11.3-44.567,11.3C329.583,245.011,323.197,244.235,317.074,242.711z M395.458,224.872
		l-137.566-79.424c1.638-18.886,7.61-38.007,17.6-55.821l8.556,26.526c1.182,3.664,4.948,5.838,8.713,5.03l37.16-7.982l11.664,36.17
		c1.182,3.665,4.948,5.837,8.714,5.031l37.156-7.983l11.663,36.169c1.016,3.15,3.941,5.199,7.133,5.199
		c0.522,0,1.051-0.055,1.581-0.168l27.232-5.852C424.604,199.35,410.867,214.072,395.458,224.872z M316.999,43.245l89.635,51.751
		c1.181,0.682,2.471,1.006,3.743,1.006c2.591,0,5.112-1.344,6.501-3.75c2.072-3.588,0.843-8.175-2.744-10.247l-82.444-47.599
		c14.324-7.285,29.545-11.3,44.566-11.3c13.868,0,26.736,3.369,38.248,10.016c21.044,12.15,34.965,33.937,39.197,61.349
		c0.563,3.644,0.942,7.329,1.148,11.042l-14.733-8.506c-3.588-2.071-8.174-0.843-10.245,2.745
		c-2.071,3.589-0.842,8.174,2.745,10.245l21.95,12.673c-1.217,14.035-4.821,28.201-10.696,41.863l-32.558,6.996l-11.663-36.169
		c-1.182-3.666-4.948-5.836-8.714-5.031l-37.156,7.983l-11.664-36.169c-1.183-3.666-4.952-5.84-8.713-5.031l-37.16,7.982
		l-10.212-31.659C294.985,61.49,305.53,51.283,316.999,43.245z"/>
</g>
<g>
</g>
<g>
</g>
<g>
</g>
<g>
</g>
<g>
</g>
<g>
</g>
<g>
</g>
<g>
</g>
<g>
</g>
<g>
</g>
<g>
</g>
<g>
</g>
<g>
</g>
<g>
</g>
<g>
</g>
</svg>
