<svg height="496pt" viewBox="0 -112 496 496" width="496pt" xmlns="http://www.w3.org/2000/svg"><path d="m472 0h-448c-13.230469 0-24 10.769531-24 24v224c0 13.230469 10.769531 24 24 24h448c13.230469 0 24-10.769531 24-24v-224c0-13.230469-10.769531-24-24-24zm-24 256h-16v-128h16zm-32 0h-32v-48h16v-80h16zm-32-64h-16v-64h16zm-16 16v48h-32v-128h16v80zm-48 48h-32v-48h16v-80h16zm-32-64h-16v-64h16zm-16 16v48h-48v-48h16v-80h16v80zm-48-16h-16v-64h16zm-16 16v48h-32v-128h16v80zm-48 48h-32v-48h16v-80h16zm-32-64h-16v-64h16zm-16 16v48h-32v-128h16v80zm368 40c0 4.40625-3.585938 8-8 8h-8v-144h-400v144h-40c-4.414062 0-8-3.59375-8-8v-224c0-4.40625 3.585938-8 8-8h448c4.414062 0 8 3.59375 8 8zm0 0"/><path d="m32 224h16v16h-16zm0 0"/><path d="m32 192h16v16h-16zm0 0"/><path d="m32 160h16v16h-16zm0 0"/><path d="m32 128h16v16h-16zm0 0"/><path d="m64 32h-16v32h-16v16h16v16h16v-16h16v-16h-16zm0 0"/><path d="m128 32h-16v16h-16v16h16v32h16v-32h16v-16h-16zm0 0"/><path d="m192 32h-16v48h-16v16h48v-16h-16zm0 0"/><path d="m240 96h160v-64h-160zm16-48h128v32h-128zm0 0"/><path d="m416 48h16v16h-16zm0 0"/><path d="m448 48h16v16h-16zm0 0"/><path d="m448 80h16v16h-16zm0 0"/><path d="m416 80h16v16h-16zm0 0"/></svg>