<?xml version="1.0" encoding="iso-8859-1"?>
<!-- Generator: Adobe Illustrator 19.0.0, SVG Export Plug-In . SVG Version: 6.00 Build 0)  -->
<svg version="1.1" id="Capa_1" xmlns="http://www.w3.org/2000/svg" xmlns:xlink="http://www.w3.org/1999/xlink" x="0px" y="0px"
	 viewBox="0 0 57 57" style="enable-background:new 0 0 57 57;" xml:space="preserve">
<g>
	<path d="M26.067,32.293c-0.391-0.391-1.023-0.391-1.414,0s-0.391,1.023,0,1.414l23,23C47.848,56.902,48.104,57,48.359,57
		s0.512-0.098,0.707-0.293c0.391-0.391,0.391-1.023,0-1.414L26.067,32.293z"/>
	<path d="M46.359,44h-4.586c-0.404,0-0.77,0.244-0.924,0.617c-0.155,0.374-0.069,0.804,0.217,1.09l4,4
		C45.254,49.895,45.508,50,45.774,50h0.586c1.654,0,3-1.346,3-3S48.014,44,46.359,44z M46.359,48h-0.172l-2-2h2.172
		c0.552,0,1,0.449,1,1S46.911,48,46.359,48z"/>
	<path d="M49.94,36.49c-0.004-0.005-0.007-0.011-0.01-0.016L33.653,10.17c1.593-0.959,2.664-2.7,2.664-4.691
		C36.317,2.458,33.859,0,30.838,0s-5.479,2.458-5.479,5.479c0,1.876,0.949,3.533,2.39,4.521L7.049,45.488
		c-0.54,0.925-0.544,2.077-0.011,3.006S8.568,50,9.64,50h27c0.404,0,0.77-0.244,0.924-0.617c0.155-0.374,0.069-0.804-0.217-1.09
		l-4-4C33.159,44.105,32.905,44,32.64,44H14.863l15.819-27.119L44.78,39.553c0.844,1.42,2.688,1.891,4.111,1.048
		C50.314,39.756,50.783,37.912,49.94,36.49z M30.838,2c1.918,0,3.479,1.561,3.479,3.479c0,1.547-1.022,2.847-2.422,3.297
		c-0.008,0.002-0.017,0.001-0.025,0.004c-0.198,0.062-0.381,0.1-0.558,0.13c-0.102,0.014-0.205,0.026-0.31,0.031
		c-0.073,0.005-0.147,0.011-0.218,0.011c-0.21-0.003-0.417-0.023-0.617-0.062c-0.012-0.003-0.024-0.002-0.036-0.005
		c-0.169-0.035-0.328-0.093-0.487-0.151c-0.029-0.011-0.056-0.016-0.085-0.027c-0.004-0.002-0.008-0.001-0.012-0.003
		c-1.279-0.514-2.187-1.763-2.187-3.224C27.359,3.561,28.92,2,30.838,2z M47.871,38.88c-0.473,0.282-1.09,0.124-1.382-0.366
		L31.505,14.416c-0.183-0.294-0.504-0.472-0.85-0.472c-0.005,0-0.01,0-0.014,0c-0.351,0.005-0.674,0.193-0.851,0.496L12.258,44.496
		c-0.18,0.309-0.182,0.691-0.003,1.002S12.764,46,13.122,46h19.104l2,2H9.64c-0.357,0-0.689-0.192-0.867-0.501
		c-0.178-0.31-0.177-0.694,0.004-1.002l20.817-35.687c0,0,0,0,0,0c0.132,0.031,0.266,0.055,0.402,0.076
		c0.063,0.01,0.126,0.021,0.189,0.029c0.086,0.01,0.174,0.017,0.261,0.023c0.1,0.008,0.201,0.014,0.302,0.015
		c0.03,0,0.059,0.005,0.09,0.005c0.071,0,0.14-0.008,0.21-0.011c0.062-0.003,0.124-0.004,0.186-0.009
		c0.171-0.012,0.339-0.033,0.504-0.06l16.484,26.64C48.499,37.99,48.342,38.601,47.871,38.88z"/>
</g>
<g>
</g>
<g>
</g>
<g>
</g>
<g>
</g>
<g>
</g>
<g>
</g>
<g>
</g>
<g>
</g>
<g>
</g>
<g>
</g>
<g>
</g>
<g>
</g>
<g>
</g>
<g>
</g>
<g>
</g>
</svg>
