<?xml version="1.0" encoding="iso-8859-1"?>
<!-- Generator: Adobe Illustrator 19.0.0, SVG Export Plug-In . SVG Version: 6.00 Build 0)  -->
<svg version="1.1" id="Layer_1" xmlns="http://www.w3.org/2000/svg" xmlns:xlink="http://www.w3.org/1999/xlink" x="0px" y="0px"
	 viewBox="0 0 509.151 509.151" style="enable-background:new 0 0 509.151 509.151;" xml:space="preserve">
<g transform="translate(1 1)">
	<g>
		<path d="M451.557,177.058c-5.973-5.973-13.653-9.387-22.187-10.24c15.36-15.36,15.36-40.96,0-56.32
			c-16.213-16.213-38.4-17.067-54.613-1.707c-0.853-6.827-5.12-14.507-11.093-20.48c-1.124-1.124-2.309-2.166-3.535-3.141
			l8.655-12.219c12.8-17.92,8.533-42.667-9.387-55.467c-8.533-6.827-19.627-9.387-29.013-7.68
			c-10.24,1.707-19.627,7.68-26.453,17.067c-2.56-8.533-6.827-15.36-13.653-20.48c-17.92-12.8-42.667-8.533-55.467,9.387
			l-64.48,92.789c-1.512-0.847-3.055-1.636-4.64-2.336c-4.267-1.707-9.387-2.56-11.947-3.413c-2.554-0.479-4.868-0.629-6.961-0.54
			c-8.989-21.373-26.857-38.464-46.799-43.833c-3.413-0.853-6.827-1.707-11.947-1.707c-14.507-0.853-19.627,7.68-21.333,10.24
			c-3.413,3.413-3.413,5.12-1.707,21.333c1.707,21.333,6.827,64.853,2.56,102.4c0,1.707-1.707,42.667,2.56,76.8L58.17,283.724
			c-19.753,28.807-18.859,67.136,3.434,94.322c0.22,19.971,7.882,39.874,23.019,55.011l55.467,55.467
			c15.36,12.8,35.84,19.627,56.32,19.627c14.507,0,28.16-2.56,40.96-10.24c1.707-0.853,4.267-1.707,5.973-2.56
			c2.804-1.402,5.608-3.057,8.272-4.271c1.439-0.023,3.371-0.21,5.797-1.682c0.146-0.008,0.293-0.021,0.437-0.021
			c12.8-0.853,34.987-9.387,55.467-29.867l11.947-11.947c12.8-12.8,31.573-31.573,36.693-36.693
			c0.853-0.853,0.853-0.853,0.853-0.853l66.56-66.56c15.36-15.36,15.36-40.96,0-56.32c-5.973-5.973-13.653-10.24-22.187-11.093
			l44.373-42.667C466.917,218.018,466.917,192.418,451.557,177.058z M248.463,25.164c7.68-11.093,21.333-13.653,31.573-5.973
			c5.12,3.413,7.68,9.387,7.68,16.213c0,7.215-1.838,14.427-5.498,20.61c-0.837,0.625-1.582,1.43-2.182,2.43l-17.067,25.6
			c-2.56,4.267-1.707,9.387,2.56,11.947c1.707,0.853,3.413,1.707,5.12,1.707c2.56,0,5.12-1.707,6.827-4.267l15.125-22.687
			c0.399-0.37,0.765-0.775,1.089-1.207l23.893-33.28c4.267-5.973,9.387-9.387,15.36-10.24s11.947,0.853,17.067,4.267
			c10.24,6.827,12.8,21.333,5.973,31.573l-10.795,15.777c-3.174-0.835-6.429-1.27-9.685-1.27c-0.893,0-1.786,0.044-2.678,0.109
			c-9.705,0.357-19.089,4.592-26.335,11.838L205.133,189.668c4.77-25.15-3.947-53.009-21.051-70.473L248.463,25.164z
			 M71.823,293.964l13.653-19.627c1.707-1.707,1.707-3.413,1.707-5.973c-5.12-33.28-2.56-75.947-2.56-75.947
			c4.267-38.4,0-83.627-2.56-104.96c0-4.267-0.853-8.533-0.853-11.093c0.853-1.707,1.707-2.56,5.973-2.56
			c3.413,0,5.973,0,8.533,0.853c14.507,3.413,29.013,17.067,35.84,34.133l-0.853,0.853c-0.133,0.08-0.263,0.159-0.388,0.238
			c-0.628,0.395-1.156,0.782-1.606,1.218c-2.363,2.283-2.753,6.009-4.833,19.878c-0.853,21.333-4.267,64.853-14.507,100.693
			c0,1.707-9.387,40.96-11.093,75.947l-13.653,13.653l-0.853,0.853c-8.533,8.533-15.36,18.773-18.773,30.72
			C57.317,334.071,59.023,311.884,71.823,293.964z M437.903,220.578L315.877,339.191c-3.413,3.413-3.413,8.533,0,11.947
			c3.413,3.413,8.533,3.413,11.947,0l56.32-52.053c9.387-8.533,23.893-8.533,32.427,0c8.533,9.387,8.533,23.893,0,32.427
			l-65.707,65.707c-0.853,0.853-0.853,0.853-0.853,0.853c-3.413,3.413-23.893,23.893-37.547,37.547l-11.947,11.947
			c-16.17,16.17-32.332,22.839-40.868,24.924c-1.154-0.32-2.359-0.407-3.505-0.178c-8.533,1.707-11.947,0-28.16-9.387
			c-4.267-1.707-9.387-0.853-11.947,3.413c-1.707,4.267-0.853,9.387,3.413,11.947c3.55,2.088,6.636,3.917,9.429,5.495
			c-26.286,12.344-57.415,8.839-76.842-8.055L96.57,420.258c-23.893-23.893-23.893-63.147,0-87.04l0.601-0.601
			c-0.618,10.32,0.586,21.673,8.786,33.027c1.707,2.56,4.267,3.413,6.827,3.413s4.267-0.853,5.973-1.707
			c3.413-2.56,4.267-8.533,1.707-11.947c-7.68-10.24-5.973-20.48-5.12-31.573c0-4.267,0.853-9.387,0.853-13.653
			c1.707-33.28,11.093-75.093,11.093-75.093c10.24-36.693,13.653-81.92,15.36-103.253c0-4.267,0.853-8.533,0.853-11.093
			c0.853-0.853,2.56-1.707,5.973-0.853s5.12,1.707,7.68,2.56c17.472,7.596,32.899,32.775,30.661,58.078
			c-0.31,2.834-0.844,5.67-1.648,8.482c0,0.853,0,0.853,0,0.853l-4.267,24.747c-0.16,0.8-0.23,1.57-0.216,2.304
			c0.001,0.065,0.009,0.127,0.011,0.192l-4.062,12.864c-1.707,5.12,0.853,9.387,5.12,11.093c0.853,0.853,1.707,0.853,2.56,0.853
			c3.413,0,6.827-2.56,8.533-5.973l5.12-16.213l119.467-119.467c0.361-0.361,0.739-0.706,1.124-1.042
			c7.086-4.445,15.538-5.134,22.77-1.518c0.853,0,0.853,0,0.853,0c1.706,0.682,3.546,0.81,5.253,0.456
			c0.856,0.645,1.67,1.346,2.427,2.104c10.24,10.24,9.387,23.04-1.707,34.133l-64.853,64.853l-44.373,46.933
			c-3.413,3.413-3.413,8.533,0,11.947c1.707,1.707,4.267,2.56,5.973,2.56c2.56,0,4.267-0.853,5.973-2.56l44.373-46.933l87.04-88.747
			c11.947-11.947,24.747-7.68,32.427,0c8.533,9.387,8.533,23.893,0,32.427l-21.333,21.333l-66.56,66.56c0,0,0,0,0,0.001
			l-29.013,28.159c-3.413,3.413-3.413,8.533,0,11.947c1.707,1.707,3.413,2.56,5.973,2.56s4.267-0.853,5.973-2.56l29.013-28.16
			c0,0,0,0,0.001-0.001l66.559-66.559c5.12-5.12,23.04-8.533,31.573,0C446.437,197.538,446.437,212.044,437.903,220.578z"/>
	</g>
</g>
<g>
</g>
<g>
</g>
<g>
</g>
<g>
</g>
<g>
</g>
<g>
</g>
<g>
</g>
<g>
</g>
<g>
</g>
<g>
</g>
<g>
</g>
<g>
</g>
<g>
</g>
<g>
</g>
<g>
</g>
</svg>
