<?xml version="1.0" encoding="iso-8859-1"?>
<!-- Generator: Adobe Illustrator 18.0.0, SVG Export Plug-In . SVG Version: 6.00 Build 0)  -->
<!DOCTYPE svg PUBLIC "-//W3C//DTD SVG 1.1//EN" "http://www.w3.org/Graphics/SVG/1.1/DTD/svg11.dtd">
<svg version="1.1" id="Capa_1" xmlns="http://www.w3.org/2000/svg" xmlns:xlink="http://www.w3.org/1999/xlink" x="0px" y="0px"
	 viewBox="0 0 465.634 465.634" style="enable-background:new 0 0 465.634 465.634;" xml:space="preserve">
<g>
	<path d="M140.432,365.132l-41.785-41.785l24.068-24.068l41.785,41.784L140.432,365.132z M109.961,323.348l30.471,30.471
		l12.754-12.755l-30.471-30.471L109.961,323.348z"/>
	<path d="M113.336,389.876c-1.024,0-2.047-0.391-2.829-1.171l-34.738-34.738c-1.562-1.563-1.562-4.095,0-5.657
		c1.563-1.562,4.095-1.562,5.657,0l34.738,34.738c1.562,1.563,1.562,4.095,0,5.657C115.383,389.486,114.36,389.876,113.336,389.876z
		"/>
	<path d="M129.776,373.111c-0.842,0-1.692-0.265-2.415-0.813l-39.14-29.692c-1.76-1.335-2.104-3.845-0.77-5.604
		c1.335-1.76,3.845-2.105,5.604-0.77l39.14,29.692c1.76,1.335,2.104,3.845,0.77,5.604
		C132.179,372.565,130.985,373.111,129.776,373.111z"/>
	<path d="M161.622,249.812c-2.906,0-5.638-1.132-7.692-3.186c-4.241-4.242-4.241-11.143,0-15.384
		c2.055-2.054,4.787-3.186,7.692-3.186c2.905,0,5.637,1.131,7.691,3.186c4.242,4.242,4.242,11.143,0,15.384
		C167.26,248.68,164.528,249.812,161.622,249.812z M161.622,236.056c-0.769,0-1.492,0.299-2.036,0.843
		c-1.122,1.122-1.122,2.948,0,4.07c1.086,1.087,2.982,1.088,4.07,0c1.123-1.122,1.123-2.948,0-4.07
		C163.114,236.355,162.391,236.056,161.622,236.056z"/>
	<path d="M98.531,440.23c-2.905,0-5.637-1.132-7.692-3.186c-2.054-2.054-3.186-4.786-3.186-7.692c0-2.905,1.132-5.637,3.186-7.692
		c2.055-2.054,4.787-3.186,7.692-3.186s5.637,1.132,7.692,3.186c2.054,2.055,3.186,4.787,3.186,7.692
		c0,2.906-1.132,5.638-3.187,7.692C104.168,439.098,101.436,440.23,98.531,440.23z M98.531,426.474
		c-0.769,0-1.491,0.299-2.035,0.843c-0.544,0.543-0.843,1.266-0.843,2.035s0.299,1.491,0.843,2.035c1.088,1.088,2.983,1.088,4.07,0
		c0.544-0.543,0.843-1.266,0.843-2.035s-0.299-1.491-0.843-2.035C100.022,426.773,99.299,426.474,98.531,426.474z"/>
	<path d="M124.72,414.041c-2.905,0-5.637-1.132-7.692-3.186c-4.241-4.241-4.241-11.143,0-15.384
		c2.055-2.054,4.787-3.186,7.692-3.186c2.906,0,5.638,1.132,7.692,3.187c4.241,4.241,4.241,11.142,0,15.383
		C130.358,412.909,127.626,414.041,124.72,414.041z M124.72,400.285c-0.769,0-1.491,0.299-2.035,0.843
		c-1.122,1.122-1.122,2.947,0,4.069c1.087,1.088,2.982,1.087,4.069,0c1.122-1.123,1.122-2.948,0-4.07
		C126.211,400.584,125.489,400.285,124.72,400.285z"/>
	<path d="M130.126,448.283c-2.906,0-5.638-1.132-7.692-3.186c-4.241-4.241-4.241-11.143,0-15.384
		c2.055-2.054,4.787-3.186,7.692-3.186c2.905,0,5.637,1.132,7.692,3.186c4.241,4.241,4.241,11.143,0,15.384
		C135.763,447.151,133.031,448.283,130.126,448.283z M130.126,434.527c-0.769,0-1.492,0.299-2.035,0.843
		c-1.122,1.122-1.122,2.947,0,4.069c1.087,1.087,2.983,1.088,4.07,0c1.122-1.122,1.122-2.947,0-4.069
		C131.617,434.827,130.895,434.527,130.126,434.527z"/>
	<path d="M156.316,422.094c-2.906,0-5.638-1.132-7.692-3.187c-2.054-2.054-3.186-4.786-3.186-7.691c0-2.906,1.132-5.638,3.187-7.692
		c2.054-2.054,4.786-3.186,7.691-3.186c2.905,0,5.637,1.132,7.692,3.186c2.054,2.054,3.186,4.786,3.186,7.692
		c0,2.905-1.132,5.637-3.186,7.692C161.953,420.962,159.221,422.094,156.316,422.094z M156.316,408.338
		c-0.769,0-1.491,0.299-2.035,0.843c-0.544,0.544-0.843,1.267-0.843,2.035s0.299,1.491,0.843,2.035c1.087,1.088,2.982,1.088,4.069,0
		c0.544-0.543,0.843-1.266,0.843-2.035s-0.299-1.491-0.843-2.035C157.807,408.637,157.084,408.338,156.316,408.338z"/>
	<path d="M465.169,38.405l-1.995-3.591c-3.318-5.973-9.459-20.959-9.521-21.11l-0.635-1.552l-1.552-0.635
		c-0.151-0.062-15.137-6.203-21.11-9.521L426.764,0l-1.899,3.643c-1.943,3.729-4.421,7.474-7.213,11.137l-4.663-4.663
		c-1.532-1.532-4.051-1.757-5.66-0.307c-1.716,1.546-1.768,4.192-0.156,5.805l5.39,5.39c-2.459,2.821-5.04,5.552-7.633,8.148
		l-5.488-5.488c-1.532-1.532-4.051-1.757-5.66-0.307c-1.716,1.546-1.768,4.192-0.156,5.805l5.538,5.538
		c-2.944,2.728-5.789,5.216-8.378,7.403l-4.891-4.891c-1.532-1.532-4.051-1.757-5.66-0.307c-1.716,1.546-1.768,4.192-0.156,5.805
		l4.485,4.485c-3.436,2.72-5.64,4.313-5.724,4.374l-1.497,1.074l-1.072,12.504l-166.65,161.676c-1.46-2.033-3.074-3.971-4.871-5.768
		c-17.268-17.266-44.739-17.889-61.239-1.39c-6.757,6.758-13.72,20.391-18.171,35.582c-3.239,11.068-13.977,18.048-25.544,16.602
		c-28.318-3.554-55.425,5.271-74.374,24.22c-35.904,35.904-32.678,97.55,7.19,137.42c21.305,21.304,48.823,32.146,75.313,32.144
		c23.083-0.001,45.389-8.235,62.107-24.954c17.656-17.656,26.463-41.908,24.799-68.294c-0.9-14.077,8.145-27.221,21.999-31.964
		c7.914-2.716,15.549-6.441,22.694-11.071c5.351-3.471,10.596-7.595,15.59-12.259c3.75-3.508,4.337-8.926,1.427-13.177
		c-2.912-4.251-8.175-5.665-12.769-3.452l-0.981,0.461c-7.146,3.266-15.381,2.641-21.536-1.663c-0.266-0.181-0.53-0.382-0.792-0.58
		l-0.053-0.04c-4.088-3.149-5.637-7.943-5.33-12.747c0.291-4.554,2.375-8.809,5.552-12.085L400.021,88.9l12.505-1.072l1.074-1.497
		c0.061-0.085,1.651-2.285,4.367-5.718l4.545,4.545c0.781,0.781,1.804,1.171,2.828,1.171c0.962,0,1.923-0.345,2.684-1.034
		c1.711-1.551,1.625-4.315-0.009-5.948l-4.958-4.958c2.184-2.587,4.684-5.439,7.408-8.379l5.598,5.598
		c0.781,0.781,1.805,1.172,2.829,1.172c0.962,0,1.925-0.345,2.686-1.036c1.709-1.551,1.62-4.315-0.012-5.947l-5.552-5.553
		c2.596-2.594,5.33-5.169,8.153-7.63l5.446,5.446c0.781,0.781,1.804,1.171,2.828,1.171c0.962,0,1.923-0.345,2.684-1.034
		c1.711-1.551,1.625-4.315-0.009-5.948l-4.729-4.729c3.664-2.791,7.409-5.273,11.142-7.218L465.169,38.405z M215.56,305.004
		l0.084,0.063c0.365,0.275,0.737,0.554,1.066,0.777c8.425,5.891,19.693,6.793,29.441,2.337l1.057-0.497
		c1.505-0.722,2.41,0.282,2.729,0.748c0.319,0.466,0.93,1.674-0.288,2.813c-4.65,4.343-9.522,8.176-14.48,11.391
		c-6.597,4.275-13.642,7.713-20.937,10.217c-17.256,5.908-28.518,22.375-27.388,40.039c1.517,24.057-6.464,46.122-22.473,62.13
		c-32.784,32.785-89.355,29.56-126.105-7.19c-36.75-36.75-39.976-93.321-7.19-126.105c17.189-17.19,41.875-25.186,67.721-21.939
		c15.477,1.937,29.87-7.437,34.218-22.292c4.034-13.767,10.373-26.396,16.15-32.173c13.38-13.381,35.776-12.759,49.924,1.39
		c1.775,1.775,3.348,3.703,4.719,5.746l-33.818,32.809l-6.632-6.632l-24.068,24.068l41.785,41.785l24.068-24.068l-5.243-5.243
		l7.185-7.406C207.257,294.24,209.833,300.594,215.56,305.004z M193.83,300.42l-12.755,12.754l-30.471-30.471l12.755-12.754
		L193.83,300.42z M194.243,289.52l-18.595-18.595L380.084,72.593l12.492,12.492L194.243,289.52z M408.198,80.17l-8.496,0.728
		l-15.432-15.432l0.728-8.495c6.563-4.888,32.359-24.88,45.02-46.155c5.672,2.766,13.553,6.087,16.869,7.466
		c1.378,3.315,4.7,11.197,7.466,16.869C433.078,47.811,413.086,73.607,408.198,80.17z"/>
</g>
<g>
</g>
<g>
</g>
<g>
</g>
<g>
</g>
<g>
</g>
<g>
</g>
<g>
</g>
<g>
</g>
<g>
</g>
<g>
</g>
<g>
</g>
<g>
</g>
<g>
</g>
<g>
</g>
<g>
</g>
</svg>
