<?xml version="1.0" encoding="iso-8859-1"?>
<!-- Generator: Adobe Illustrator 21.0.0, SVG Export Plug-In . SVG Version: 6.00 Build 0)  -->
<svg xmlns="http://www.w3.org/2000/svg" xmlns:xlink="http://www.w3.org/1999/xlink" version="1.1" id="Capa_1" x="0px" y="0px" viewBox="0 0 511.603 511.603" style="enable-background:new 0 0 511.603 511.603;" xml:space="preserve" fill="#FFFFFF" width="512" height="512">
<g>
	<path d="M181.985,111.825c-9.854-6.66-21.105-12.124-32.537-15.8c-3.943-1.273-8.168,0.9-9.436,4.844   c-1.268,3.943,0.901,8.168,4.844,9.436c10.1,3.248,20.034,8.071,28.729,13.948c11.484,7.763,18.34,20.709,18.34,34.63v25.588   c0,13.922-6.856,26.867-18.34,34.63c-17.214,11.638-38.159,18.585-56.026,18.585c-36.397,0-66.009-29.611-66.009-66.009   c0-36.397,29.611-66.009,66.009-66.009c4.142,0,7.5-3.357,7.5-7.5c0-4.142-3.358-7.5-7.5-7.5   c-44.668,0-81.009,36.341-81.009,81.009c0,26.14,12.457,49.414,31.734,64.236v79.208c0,4.142,3.358,7.5,7.5,7.5   c4.142,0,7.5-3.358,7.5-7.5v-70.067c6.574,3.083,13.624,5.305,21.011,6.528v120.388H83.283v-26.849c0-4.143-3.358-7.5-7.5-7.5   c-4.142,0-7.5,3.357-7.5,7.5v51.151c0,9.312,7.575,16.887,16.887,16.887h1.119v90.944c0,4.143,3.358,7.5,7.5,7.5   c4.142,0,7.5-3.357,7.5-7.5v-90.944h1.118c9.312,0,16.887-7.575,16.887-16.887V252.645c20.345-0.423,43.635-8.234,62.691-21.117   c15.617-10.556,24.94-28.147,24.94-47.058v-25.588C206.925,139.973,197.601,122.383,181.985,111.825z M102.407,398.159H85.17   c-1.041,0-1.887-0.847-1.887-1.887v-9.303h21.011v9.303C104.294,397.312,103.447,398.159,102.407,398.159z"/>
	<path d="M75.783,163.321c-4.142,0-7.5,3.357-7.5,7.5c0,4.143,3.358,7.5,7.5,7.5h31.914c4.142,0,7.5-3.357,7.5-7.5   c0-4.143-3.358-7.5-7.5-7.5H75.783z"/>
	<path d="M475.054,171.676c0-44.668-36.34-81.009-81.009-81.009c-20.743,0-44.828,7.909-64.427,21.157   c-15.617,10.558-24.94,28.148-24.94,47.058v25.588c0,18.91,9.323,36.502,24.94,47.058c19.056,12.882,42.346,20.694,62.691,21.117   v143.628c0,9.312,7.576,16.887,16.887,16.887h1.118v90.944c0,4.143,3.358,7.5,7.5,7.5s7.5-3.357,7.5-7.5v-90.944h1.119   c9.312,0,16.887-7.575,16.887-16.887v-87.817c0-4.143-3.358-7.5-7.5-7.5c-4.142,0-7.5,3.357-7.5,7.5v63.515h-21.011V251.581   c7.387-1.222,14.437-3.445,21.011-6.528v33.401c0,4.142,3.358,7.5,7.5,7.5c4.142,0,7.5-3.358,7.5-7.5v-42.542   C462.597,221.09,475.054,197.817,475.054,171.676z M319.679,184.47v-25.588c0-13.921,6.856-26.867,18.34-34.63   c17.216-11.638,38.16-18.585,56.026-18.585c36.397,0,66.009,29.611,66.009,66.009c0,36.397-29.611,66.009-66.009,66.009   c-17.868,0-38.812-6.947-56.026-18.585C326.535,211.338,319.679,198.392,319.679,184.47z M428.32,386.969v9.303   c0,1.04-0.846,1.887-1.887,1.887h-17.237c-1.04,0-1.887-0.847-1.887-1.887v-9.303H428.32z"/>
	<path d="M403.906,178.321h31.914c4.142,0,7.5-3.357,7.5-7.5c0-4.143-3.358-7.5-7.5-7.5h-31.914c-4.142,0-7.5,3.357-7.5,7.5   C396.406,174.964,399.764,178.321,403.906,178.321z"/>
	<path d="M228.17,115.284c12.404,5.204,27.068-0.817,32.259-13.19L289.8,32.084c2.788,6.308,6.388,9.465,10.91,12.975   c1.832,1.422,3.561,2.765,5.453,4.705c6.358,6.526,0.22,20.965,0.12,21.192c-1.564,3.48-0.187,7.698,3.126,9.588   c3.789,2.161,8.751,0.548,10.547-3.419c0.438-0.967,10.575-23.846-3.049-37.828c-2.617-2.687-5.047-4.572-6.999-6.088   c-5.31-4.122-8.24-6.398-10.46-26.446c-0.326-3.382-2.999-6.161-6.34-6.679c-3.384-0.525-6.789,1.423-8.078,4.594l-29.662,70.7   c-2.243-2.313-4.978-4.222-8.132-5.545c-12.532-5.258-27.002,0.659-32.259,13.191C209.723,95.555,215.64,110.027,228.17,115.284z    M247.352,92.562c0,5.327-4.319,9.646-9.646,9.646c-5.327,0-9.646-4.319-9.646-9.646s4.319-9.646,9.646-9.646   C243.034,82.916,247.352,87.234,247.352,92.562z"/>
	<path d="M327.866,361.611c-0.001-0.002-0.002-0.004-0.003-0.007l-29.037-77.64c-1.069-2.859-3.327-5.099-6.196-6.143   c-2.868-1.044-6.038-0.783-8.699,0.721l-59.155,33.464c-4.486,2.541-6.433,7.891-4.627,12.721l20.835,55.708   c-2.369,0.082-4.736,0.527-7.021,1.382c-5.545,2.073-9.952,6.183-12.407,11.57c-2.455,5.388-2.664,11.409-0.59,16.954   c3.328,8.898,11.799,14.402,20.785,14.402c2.574,0,5.192-0.452,7.741-1.405c11.448-4.281,17.278-17.078,12.997-28.525   c0,0,0,0,0-0.001c-0.256-0.686-0.545-1.353-0.862-2.002l-26.058-69.676l51.084-28.898l19.82,52.996   c-2.407,0.071-4.812,0.515-7.133,1.384c-11.447,4.28-17.278,17.077-12.997,28.526c3.329,8.897,11.8,14.401,20.785,14.401   c2.574,0,5.192-0.452,7.741-1.406c5.546-2.073,9.952-6.183,12.407-11.57c2.455-5.388,2.664-11.409,0.59-16.955   C327.866,361.612,327.866,361.612,327.866,361.611z M248.888,402.573c0,3.957-3.208,7.165-7.165,7.165   c-3.957,0-7.165-3.208-7.165-7.165c0-3.957,3.208-7.165,7.165-7.165C245.68,395.408,248.888,398.616,248.888,402.573z    M314.274,369.375c0,3.959-3.209,7.168-7.168,7.168c-3.959,0-7.168-3.209-7.168-7.168c0-3.959,3.209-7.168,7.168-7.168   C311.065,362.207,314.274,365.416,314.274,369.375z"/>
	<circle cx="139.249" cy="170.824" r="7.497"/>
	<circle cx="372.351" cy="170.826" r="7.5"/>
</g>















</svg>
