<?xml version="1.0" encoding="iso-8859-1"?>
<!-- Generator: Adobe Illustrator 18.0.0, SVG Export Plug-In . SVG Version: 6.00 Build 0)  -->
<!DOCTYPE svg PUBLIC "-//W3C//DTD SVG 1.1//EN" "http://www.w3.org/Graphics/SVG/1.1/DTD/svg11.dtd">
<svg version="1.1" id="Capa_1" xmlns="http://www.w3.org/2000/svg" xmlns:xlink="http://www.w3.org/1999/xlink" x="0px" y="0px"
	 viewBox="0 0 458.611 458.611" style="enable-background:new 0 0 458.611 458.611;" xml:space="preserve">
<g>
	<path d="M458.394,26.935c-0.786-3.66-3.55-6.416-7.212-7.193c-2.274-0.482-4.606-0.728-6.933-0.728
		c-1.502,0-2.992,0.105-4.466,0.303l-1.511-3.429c-0.89-2.021-3.252-2.938-5.273-2.047c-2.021,0.891-2.938,3.252-2.047,5.273
		l0.991,2.25c-0.004,0.001-0.008,0.003-0.012,0.004l-3.025,1.2l-1.115-2.528c-0.892-2.022-3.254-2.935-5.274-2.045
		c-2.021,0.892-2.938,3.253-2.046,5.274l0.994,2.252l-3.035,1.204l-1.112-2.524c-0.892-2.022-3.252-2.938-5.273-2.048
		c-2.021,0.891-2.938,3.251-2.049,5.273l0.992,2.252l-3.036,1.205l-1.116-2.53c-0.891-2.021-3.255-2.936-5.274-2.045
		c-2.021,0.892-2.938,3.253-2.046,5.274l0.994,2.254l-3.029,1.202l-1.111-2.528c-0.89-2.023-3.251-2.941-5.271-2.052
		c-2.022,0.889-2.941,3.249-2.053,5.271l0.994,2.26l-3.031,1.203l-1.116-2.528c-0.892-2.021-3.252-2.935-5.274-2.045
		c-2.021,0.892-2.937,3.253-2.044,5.274l1.147,2.6c-3.438,2.546-5.25,6.898-4.439,11.26c0.619,3.327-0.227,6.76-2.32,9.419
		l-129.588,164.57c-4.729,5.998-11.818,9.438-19.454,9.438c-1.238,0-2.488-0.094-3.715-0.28l-23.378-3.542
		c-0.821-0.125-1.657-0.188-2.484-0.188c-7.002,0-13.269,4.441-15.595,11.05L163.23,288.31c-1.724,4.9-5.451,8.886-10.225,10.936
		L7.43,361.751c-4.475,1.921-7.32,6.138-7.427,11.005c-0.106,4.872,2.555,9.214,6.946,11.332
		c30.664,14.787,110.894,50.318,193.415,60.877c0.754,0.096,1.52,0.145,2.276,0.145c8.207,0,15.316-5.564,17.29-13.531
		l17.568-70.956c1.66-6.704,5.805-12.401,11.671-16.043l89.082-55.313c3.185-1.978,4.582-5.57,3.561-9.153
		c-1.021-3.578-4.146-5.981-7.776-5.981c-0.661,0-1.332,0.08-1.996,0.239l-66.129,15.798c-1.029,0.246-2.062,0.371-3.067,0.371
		c-4.617,0-8.813-2.675-10.949-6.981c-2.116-4.268-1.641-9.104,1.273-12.938L401.39,75.589l53.386-39.132
		C457.794,34.243,459.181,30.595,458.394,26.935z M262.845,298.54c1.631,0,3.288-0.199,4.926-0.59l66.129-15.798
		c0.072-0.018,0.223,0.262,0.132,0.318l-89.082,55.313c-7.647,4.749-13.051,12.177-15.216,20.917l-17.568,70.956
		c-1.087,4.389-5.004,7.454-9.524,7.454c-0.418,0-0.843-0.027-1.261-0.081c-81.358-10.41-160.644-45.531-190.956-60.147
		c-2.304-1.111-2.437-3.305-2.423-3.95c0.015-0.644,0.242-2.823,2.585-3.829l145.575-62.506c6.823-2.93,12.15-8.627,14.615-15.631
		l15.517-44.087c1.201-3.413,4.435-5.706,8.048-5.706c0.428,0,0.86,0.033,1.287,0.098l23.378,3.542
		c1.622,0.246,3.274,0.37,4.912,0.37c2.038,0,4.044-0.194,6.003-0.555l-3.815,4.789c-0.664,0.833-0.968,1.898-0.844,2.957
		c0.123,1.059,0.664,2.024,1.502,2.682l17.943,14.089c-2.833,5.641-2.88,12.122,0.021,17.971
		C248.225,294.163,255.167,298.541,262.845,298.54z M249.258,262.545l-14.385-11.295L379.245,68.123
		c0.936-1.188,1.719-2.471,2.351-3.815l11.411,9.091L249.258,262.545z M450.045,30.004l-51.387,37.668l-15.184-12.097
		c-0.018-1.094-0.125-2.193-0.328-3.285c-0.297-1.597,0.583-3.191,2.094-3.79l49.643-19.696c4.638-1.84,9.759-2.272,14.641-1.237
		c0.752,0.16,0.98,0.726,1.051,1.048C450.643,28.939,450.666,29.549,450.045,30.004z"/>
	<path d="M186.964,370.381c1.376-1.728,1.092-4.245-0.637-5.621l-32.85-26.172c-1.729-1.378-4.245-1.091-5.621,0.636
		c-1.376,1.728-1.092,4.245,0.637,5.621l32.85,26.172c0.736,0.587,1.616,0.872,2.489,0.872
		C185.009,371.888,186.174,371.372,186.964,370.381z"/>
	<path d="M159.71,330.767l32.849,26.172c0.736,0.587,1.616,0.872,2.489,0.872c1.177,0,2.342-0.516,3.132-1.507
		c1.376-1.728,1.092-4.245-0.637-5.621l-32.849-26.172c-1.729-1.378-4.245-1.091-5.621,0.636
		C157.697,326.873,157.982,329.39,159.71,330.767z"/>
	<path d="M166.136,316.282l39.105,31.156l16.202-20.335l-39.106-31.157L166.136,316.282z M210.201,328.375l-6.231,7.821
		l-26.592-21.187l6.23-7.821L210.201,328.375z"/>
	<path d="M189.4,287.082l39.105,31.157l16.202-20.335l-39.106-31.157L189.4,287.082z M233.465,299.176l-6.231,7.821l-26.592-21.187
		l6.23-7.821L233.465,299.176z"/>
	<path d="M212.331,376.519c-1.941-1.546-4.375-2.397-6.854-2.397c-3.373,0-6.513,1.512-8.613,4.148
		c-3.78,4.747-2.995,11.684,1.751,15.465c1.94,1.546,4.375,2.398,6.854,2.398c3.373,0,6.512-1.512,8.612-4.148
		c1.831-2.299,2.658-5.174,2.328-8.095C216.079,380.97,214.631,378.352,212.331,376.519z M207.823,387.001
		c-0.573,0.72-1.432,1.133-2.354,1.133c-0.478,0-1.189-0.114-1.869-0.655c-1.296-1.033-1.511-2.928-0.478-4.224
		c0.573-0.72,1.432-1.133,2.355-1.133c0.478,0,1.189,0.114,1.869,0.655c0.628,0.5,1.023,1.215,1.113,2.013
		C208.55,385.587,208.324,386.373,207.823,387.001z"/>
	<path d="M201.45,404.587c-1.941-1.547-4.375-2.399-6.854-2.399c-3.373,0-6.513,1.512-8.613,4.148
		c-3.781,4.747-2.996,11.685,1.751,15.466c1.94,1.546,4.375,2.398,6.854,2.398c3.373,0,6.512-1.512,8.612-4.148
		C206.982,415.307,206.196,408.369,201.45,404.587z M196.943,415.068c-0.573,0.72-1.432,1.133-2.354,1.133
		c-0.478,0-1.189-0.114-1.869-0.655c-0.628-0.5-1.023-1.215-1.113-2.013c-0.091-0.798,0.135-1.583,0.635-2.211
		c0.574-0.72,1.433-1.133,2.356-1.133c0.477,0,1.188,0.114,1.868,0.655c0.628,0.5,1.023,1.215,1.113,2.013
		C197.669,413.655,197.444,414.44,196.943,415.068z"/>
</g>
<g>
</g>
<g>
</g>
<g>
</g>
<g>
</g>
<g>
</g>
<g>
</g>
<g>
</g>
<g>
</g>
<g>
</g>
<g>
</g>
<g>
</g>
<g>
</g>
<g>
</g>
<g>
</g>
<g>
</g>
</svg>
