<svg height="512pt" viewBox="-7 0 512 512.00216" width="512pt" xmlns="http://www.w3.org/2000/svg"><path d="m498.363281 39.339844c-1.359375-11.582032-13.582031-18.6875-24.117187-18.589844-.90625.007812-1.796875.0625-2.683594.140625-.851562-3.339844-1.738281-6.792969-3.371094-10.113281-2.4375-4.96875-6.167968-8.53125-10.5-10.03125-5.753906-1.992188-12.269531.125-15.15625 4.921875-2.542968 4.230469-2.1875 9.65625 1.050782 16.128906 1.195312 2.386719 2.546874 4.726563 4.011718 6.953125.175782.265625.398438.601562.660156.960938-.515624.300781-1.027343.601562-1.539062.90625-.945312.558593-1.898438 1.132812-2.855469 1.710937-1.285156-3.613281-2.9375-7.089844-4.964843-10.355469-1.664063-2.671875-4.050782-6-7.789063-7.984375-4.46875-2.371093-9.757813-1.949219-13.15625 1.054688-3.132813 2.769531-4.367187 7.410156-3.386719 12.730469 1.222656 6.621093 4.960938 12.574218 10.277344 16.601562-1.261719.832031-2.539062 1.679688-3.832031 2.542969-1.324219-2.925781-2.910157-5.734375-4.742188-8.375-3.738281-5.382813-7.960937-8.113281-12.546875-8.113281-.03125 0-.0625 0-.09375 0-5.324218.042968-10.261718 4.265624-11.480468 9.828124-.972657 4.441407.355468 9.503907 3.554687 13.53125 1.824219 2.296876 4.042969 4.0625 6.136719 5.421876-3.589844 2.867187-6.539063 6.148437-7.726563 10-1.550781 5.023437-.121093 9.644531 2.335938 13.742187-74.851563 63.253906-145.851563 132.039063-211.574219 204.953125-1.480469-2.699219-2.550781-5.636719-3.246094-8.695312-.039062-.296876-.105468-.589844-.210937-.871094-1.847657-9.1875-.21875-19.429688 4.878906-28.066406 6.902344-11.703126 19.457031-20.320313 34.445313-23.648438 1.613281-.355469 2.839843-1.660156 3.105468-3.289062.265625-1.628907-.488281-3.253907-1.902344-4.101563-16.421874-9.851563-38.484374-10.433594-57.582031-1.53125-16.425781 7.65625-30.835937 22.1875-40.566406 40.910156-2.972656 5.726563-5.578125 11.835938-8.09375 17.746094-6.816406 16.007813-13.253906 31.128906-26.617187 39.640625-9 5.734375-19.875 7.527344-31.390626 9.421875-13 2.140625-26.441406 4.355469-37.25 12.734375-9.902343 7.679688-16.753906 20.320312-19.285156 35.597656-6.328125 38.195313 14.714844 71.992188 27.824219 88.742188 16.472656 21.042968 36.019531 36.179687 56.519531 43.765625 10.378906 3.84375 21.109375 5.742187 31.546875 5.742187 14.316407-.003906 28.082031-3.574218 39.625-10.601562 14.882813-9.0625 26.351563-24.109375 31.460938-41.285156 2.390625-8.027344 3.421875-16.390626 4.417969-24.480469 1.402343-11.363281 2.722656-22.097657 7.511718-31.683594 4.324219-8.660156 11.4375-15.886719 20.03125-20.34375 4.910156-2.546875 10.222656-4.207031 15.847656-5.964844 6.054688-1.894531 12.316407-3.851562 18.136719-7.03125 18.324219-10.015625 29.316407-32.261719 26.136719-52.898437-.230469-1.523438-1.308594-2.777344-2.777344-3.234375-1.46875-.460938-3.070312-.042969-4.128906 1.070312-7.179688 7.5625-18.785156 16.945313-33.292969 18.6875-13.171875 1.578125-26.132812-4.402343-31.503906-14.550781-.074219-.140625-.171875-.261719-.257813-.386719 20.613282-21.757812 41.5-43.371093 62.628907-64.796875.042969-.039062.09375-.066406.136719-.109375.078124-.074219.132812-.160156.207031-.238281 48.28125-48.945312 97.777343-96.898438 147.957031-143.332031 1.972656 2.671875 2.769531 4.007812 3.074219 4.621093-.019531 1.25.542969 2.488282 1.621093 3.292969.726563.539063 1.570313.796875 2.40625.796875 1.230469 0 2.445313-.558594 3.234376-1.621094.003906-.003906.003906-.003906.003906-.007812 10.726562-14.402344 21.15625-29.3125 31.007812-44.3125.890625-1.359375 2.726563-4.152344 3.210938-7.394531 6.675781-.3125 13.820312-1.074219 20.351562-4.203125 7.71875-3.699219 15.472656-12.363282 14.265625-22.65625zm-44.03125-15.023438c-1.292969-1.960937-2.480469-4.023437-3.535156-6.128906-1.324219-2.640625-2.628906-6.238281-1.351563-8.367188.917969-1.523437 3.484376-2.191406 5.609376-1.457031 3.117187 1.078125 5.035156 4.199219 5.902343 5.964844 1.207031 2.460937 1.941407 5.230469 2.6875 8.15625-2.808593.871094-5.527343 2.011719-8.171875 3.308594-.210937-.1875-.5625-.59375-1.140625-1.476563zm-31.835937 1.996094c-.433594-2.363281-.121094-4.417969.796875-5.230469.839843-.742187 2.613281-.726562 4.035156.027344 1.589844.84375 3.042969 2.421875 4.71875 5.121094 2.027344 3.261719 3.617187 6.773437 4.769531 10.433593-1.5.941407-3.027344 1.910157-4.574218 2.898438-4.988282-2.636719-8.71875-7.703125-9.746094-13.25zm-20.476563 22.460938c-1.710937-2.148438-2.457031-4.691407-1.996093-6.789063.414062-1.878906 2.09375-3.480469 3.667968-3.492187h.023438c2.234375 0 4.457031 2.527343 5.933594 4.652343 1.773437 2.546875 3.257812 5.289063 4.460937 8.152344-.300781.171875-.597656.347656-.902344.523437-1.289062.75-2.628906 1.535157-3.976562 2.355469-3.371094-1.742187-5.667969-3.457031-7.210938-5.402343zm-51.523437 115.789062c-1.140625-1.15625-2.160156-2.695312-3.214844-4.304688l-.660156-1c-3.015625-4.53125-6.535156-8.707031-10.472656-12.460937 4.933593-4.523437 9.882812-9.019531 14.855468-13.492187l13.613282 15.726562c.332031.386719.730468.675781 1.15625.902344-5.101563 4.863281-10.195313 9.738281-15.277344 14.628906zm-41.347656 40.269531c-5.851563-5.410156-10.960938-11.558593-15.203126-18.3125 4.53125-4.382812 9.085938-8.738281 13.652344-13.082031 4.59375 6.234375 9.597656 12.261719 14.894532 17.917969.0625.066406.136718.113281.199218.171875-4.523437 4.425781-9.039062 8.859375-13.542968 13.304687zm-18.699219 18.566407-16.703125-17.050782c4.75-4.71875 9.523437-9.414062 14.316406-14.085937 4.367188 6.683593 9.507812 12.808593 15.347656 18.25-4.328125 4.285156-8.648437 8.582031-12.960937 12.886719zm37.929687-37.554688c-5.191406-5.542969-10.097656-11.453125-14.578125-17.570312-.101562-.140626-.222656-.253907-.339843-.378907 5.554687-5.242187 11.136718-10.449219 16.746093-15.628906 3.65625 3.433594 6.917969 7.277344 9.703125 11.460937l.625.953126c1.191406 1.816406 2.484375 3.769531 4.148438 5.476562-5.425782 5.242188-10.84375 10.492188-16.25 15.761719-.019532-.023438-.03125-.050781-.054688-.074219zm42.332032-42.085938-13.71875-15.855468c6.234374-5.566406 12.507812-11.085938 18.800781-16.578125l13.867187 16.011719c-6.132812 5.761718-12.257812 11.539062-18.367187 17.339843-.15625-.324219-.335938-.636719-.582031-.917969zm-121.003907 120.816407c-5.660156-5.449219-11.144531-11.175781-16.347656-17.074219 4.234375-4.4375 8.496094-8.847656 12.773437-13.246094l16.46875 17.179688c-4.308593 4.375-8.605468 8.753906-12.894531 13.140625zm-39.371093 40.816406c-4.230469-6.226563-9.554688-11.84375-15.554688-16.410156 3.644531-4.019531 7.292969-8.042969 10.96875-12.039063 5.339844 5.390625 10.945312 10.65625 16.671875 15.648438.027344.023437.0625.042968.09375.066406-4.070313 4.238281-8.132813 8.484375-12.179687 12.734375zm-15.574219 16.433594c-.066407-.105469-.117188-.21875-.191407-.320313-4.332031-5.804687-9.425781-10.976562-15.140624-15.410156 3.292968-3.710938 6.597656-7.414062 9.914062-11.105469 5.851562 4.34375 11.015625 9.800781 14.980469 15.890625.109375.167969.230469.324219.363281.46875-3.3125 3.488282-6.625 6.980469-9.925781 10.476563zm-20.679688-9.675781c5.304688 4.058593 10.027344 8.820312 14.027344 14.175781.371094.5.839844.875 1.351563 1.144531-2.65625 2.832031-5.324219 5.660156-7.972657 8.492188-1.28125 1.371093-1.878906 1.726562-2.125 1.816406-.300781-.148438-.890625-.621094-1.1875-.863282l-15.085937-12.207031c3.640625-4.203125 7.316406-8.382812 10.992187-12.558593zm53.636719-25.636719c-5.664062-4.9375-11.207031-10.144531-16.480469-15.480469 5.484375-5.914062 11.003907-11.800781 16.554688-17.65625 5.195312 5.859375 10.65625 11.550781 16.289062 16.976562-5.351562 5.5-10.691406 11.011719-16.011719 16.535157-.113281-.128907-.21875-.257813-.351562-.375zm-192.386719 171.011719c-28.636719-36.589844-28.71875-67.363282-26.21875-82.453126 2.199219-13.265624 7.980469-24.113281 16.273438-30.542968 9.191406-7.128906 21.058593-9.082032 33.617187-11.148438 11.808594-1.945312 24.023438-3.957031 34.414063-10.578125 15.472656-9.859375 22.707031-26.851562 29.703125-43.285156 2.457031-5.769531 5-11.738281 7.828125-17.183594 8.917969-17.15625 21.996093-30.410156 36.824219-37.324219 13.289062-6.199218 28.140624-7.1875 40.789062-3.050781-12.519531 4.972657-22.863281 13.464844-29.210938 24.21875-5.96875 10.117188-7.929687 22.117188-5.921874 33.054688-5.605469 11.980469-17.5625 26.480469-28.289063 34.179687-7.371094 5.289063-15.921875 9.390625-24.1875 13.359375-11.28125 5.414063-22.941406 11.011719-32.421875 19.859375-6.222656 5.808594-11.367188 12.980469-14.875 20.738282-3.144531 6.953124-6.09375 17.289062-2.308594 27.039062 4.234375 10.902344 14.933594 16.710938 24.378906 21.832031l.128907.070313c8.734375 4.742187 17.082031 10.273437 18.976562 18.5625.835938 3.648437.410157 7.90625-1.339843 13.402344-6.230469 19.550781-22.988282 35.890624-42.691407 41.617187-.066406.019531-.125.054687-.191406.078125-12.636719-7.835938-24.605469-18.816406-35.277344-32.445312zm205.652344-115.28125c12.929687-1.554688 23.695313-8.125 31.664063-14.945313-.824219 14.746094-9.441407 29.140625-22.433594 36.242187-5.121094 2.796876-10.734375 4.550782-16.675782 6.40625-5.710937 1.785157-11.613281 3.632813-17.152343 6.503907-10.097657 5.238281-18.457031 13.726562-23.539063 23.902343-5.402344 10.824219-6.875 22.757813-8.296875 34.296876-.957031 7.761718-1.945312 15.785156-4.140625 23.167968-4.550781 15.285156-14.730468 28.664063-27.929687 36.699219-17.867188 10.878906-41.859375 12.445313-64.175781 4.183594-2.765626-1.023438-5.511719-2.214844-8.238282-3.53125 19.3125-7.957031 34.730469-24.441407 41.105469-44.449219 2.207031-6.925781 2.6875-12.53125 1.519531-17.648438-2.617187-11.441406-13.09375-18.472656-22.992187-23.847656l-.128907-.070312c-8.625-4.679688-17.546874-9.519532-20.710937-17.664063-2.769531-7.140625-.363281-15.253906 2.144531-20.800781 3.070313-6.792969 7.578125-13.078125 13.03125-18.167969 8.574219-8.003906 19.179688-13.09375 30.40625-18.480469 8.582032-4.117187 17.453125-8.375 25.398438-14.078124 9.785156-7.023438 20.171875-18.757813 27.011718-30.089844.710938 1.488281 1.496094 2.9375 2.390626 4.320312-8.410157 9.40625-16.746094 18.863282-24.976563 28.398438-.714844.824218-1.0625 1.90625-.964844 2.992187.097657 1.085938.632813 2.089844 1.480469 2.773438l18.324219 14.828125c1.097656.890625 2.757812 2.234375 5.0625 2.585937.40625.066407.796875.09375 1.183593.09375 3.921876 0 6.753907-3.03125 8.027344-4.394531 5.027344-5.378906 10.070313-10.746094 15.132813-16.105469 7.421875 11.863281 22.875 18.75 38.472656 16.878907zm27.277344-96.554688-16.5-17.210938c5.394531-5.507812 10.820312-10.988281 16.269531-16.441406l16.714844 17.0625c-5.511719 5.515625-11.007813 11.046875-16.484375 16.589844zm127.285156-123.871094-13.667969-15.773437c6.445313-5.582031 12.917969-11.132813 19.421875-16.632813.785157.902344 1.5625 1.761719 2.304688 2.578125.800781.878907 1.558593 1.71875 2.234375 2.507813l.570312.667968c3.195313 3.714844 5.742188 6.765626 7.792969 9.289063-6.230469 5.761719-12.445313 11.554687-18.65625 17.363281zm85.070313-67.09375c-6.445313 3.085938-14.078126 3.339844-21.460938 3.582032-1.378906.046874-2.640625.796874-3.339844 1.988281-.703125 1.191406-.742187 2.65625-.109375 3.886719.222657.4375.273438 1.664062-1.910156 4.988281-8.5625 13.039062-17.570313 26.007812-26.824219 38.632812-1.097656-1.554687-2.464844-3.347656-4.105468-5.4375-3.992188-5.074219-8.605469-10.4375-10.339844-12.457031l-.550782-.640625c-.722656-.847656-1.539062-1.75-2.398437-2.695313-4.117187-4.535156-9.242187-10.179687-7.757813-14.984374 1.425782-4.625 9.53125-9.351563 15.449219-12.796876 2.085938-1.21875 4.050781-2.363281 5.664063-3.449218 10.207031-6.882813 19.332031-12.703125 27.902344-17.789063 7.390624-4.386719 15.289062-8.675781 23.472656-8.738281h.121094c7.066406 0 15.117187 4.582031 15.929687 11.46875.710937 6.078125-4.363281 11.863281-9.742187 14.441406zm0 0"/><path d="m423.332031 63.636719c-2.324219 1.085937-4.585937 2.34375-6.730469 3.75-1.859374 1.222656-2.382812 3.722656-1.160156 5.582031.773438 1.179688 2.0625 1.820312 3.375 1.820312.757813 0 1.527344-.214843 2.207032-.660156 1.824218-1.195312 3.746093-2.265625 5.714843-3.183594 2.019531-.941406 2.890625-3.339843 1.953125-5.359374-.941406-2.015626-3.339844-2.890626-5.359375-1.949219zm0 0"/><path d="m440.535156 50.464844c-1.839844 1.222656-3.75 2.394531-5.671875 3.484375-1.9375 1.097656-2.617187 3.554687-1.523437 5.492187.742187 1.3125 2.109375 2.046875 3.515625 2.046875.671875 0 1.351562-.167969 1.980469-.523437 2.085937-1.183594 4.160156-2.457032 6.15625-3.78125 1.855468-1.230469 2.363281-3.734375 1.128906-5.589844-1.226563-1.851562-3.730469-2.359375-5.585938-1.128906zm0 0"/><path d="m465.285156 36.203125-6.152344 3.183594c-1.976562 1.023437-2.75 3.457031-1.726562 5.433593.71875 1.386719 2.125 2.179688 3.585938 2.179688.621093 0 1.257812-.144531 1.847656-.453125l6.152344-3.183594c1.976562-1.019531 2.75-3.453125 1.726562-5.429687-1.023438-1.980469-3.457031-2.753906-5.433594-1.730469zm0 0"/><path d="m72.691406 466.875c6.570313-.003906 13.375-3.019531 16.210938-9.488281 2.335937-5.328125 1.496094-11.878907-2.363282-18.453125-4.722656-8.050782-15.234374-17.207032-25.414062-18.324219-5.714844-.625-10.804688 1.277344-14.730469 5.503906-3.722656 4.007813-4.921875 9.167969-3.464843 14.925781 2.683593 10.59375 14.511718 21.832032 23.292968 24.800782 2.019532.683594 4.230469 1.035156 6.46875 1.035156zm-21.945312-27.816406c-.777344-3.058594-.265625-5.5 1.550781-7.457032 1.898437-2.039062 4.109375-3.042968 6.734375-3.042968.398438 0 .800781.023437 1.214844.066406 7.195312.789062 15.636718 8.082031 19.335937 14.390625 1.175781 1.996094 3.710938 7.082031 1.9375 11.132813-1.882812 4.289062-8.210937 5.578124-12.714843 4.054687-5.816407-1.96875-15.964844-10.871094-18.058594-19.144531zm0 0"/><path d="m126.300781 461.378906c-6.445312 3.683594-8.734375 11.171875-5.574219 18.210938 2.476563 5.515625 7.371094 8.71875 12.742188 8.71875 1.492188 0 3.023438-.25 4.550781-.761719 2.984375-1.003906 5.296875-2.960937 7.160157-4.742187 5.375-5.125 6.277343-11.882813 2.300781-17.222657-4.101563-5.5-13.363281-8.675781-21.179688-4.203125zm13.316407 15.589844c-1.226563 1.171875-2.679688 2.433594-4.171876 2.9375-3.675781 1.234375-6.265624-1.179688-7.363281-3.621094-1.09375-2.4375-1.171875-5.972656 2.21875-7.910156 1.300781-.742188 2.707031-1.070312 4.078125-1.070312 2.703125 0 5.273438 1.265624 6.636719 3.097656 1.515625 2.03125 1.042969 4.238281-1.398437 6.566406zm0 0"/><path d="m155.46875 427.183594c-5.910156.269531-11.738281 4.175781-14.496094 9.71875-2.425781 4.871094-2.082031 10.1875.941406 14.589844 1.902344 2.773437 5.074219 4.699218 8.921876 5.425781 1.074218.203125 2.15625.300781 3.234374.300781 4.867188 0 9.621094-2.003906 12.703126-5.511719 4.191406-4.769531 4.910156-11.996093 1.710937-17.191406-3.066406-4.96875-7.675781-7.570313-13.015625-7.332031zm5.25 19.199218c-1.894531 2.152344-5.261719 3.207032-8.386719 2.613282-1.714843-.324219-3.089843-1.078125-3.769531-2.070313-1.710938-2.488281-1.148438-4.871093-.371094-6.429687 1.449219-2.910156 4.664063-5.121094 7.644532-5.257813.09375-.003906.191406-.003906.285156-.003906 2.210937 0 4.058594 1.179687 5.496094 3.511719 1.34375 2.179687.949218 5.53125-.898438 7.636718zm0 0"/><path d="m145.335938 293.777344c1.074218.203125 2.15625.300781 3.234374.300781 4.867188 0 9.621094-2.007813 12.703126-5.515625 4.191406-4.765625 4.910156-11.996094 1.710937-17.1875-3.0625-4.96875-7.679687-7.574219-13.015625-7.332031-5.910156.269531-11.734375 4.175781-14.496094 9.71875-2.421875 4.871093-2.078125 10.1875.941406 14.589843 1.90625 2.773438 5.074219 4.699219 8.921876 5.425782zm-2.644532-16.421875c1.449219-2.914063 4.664063-5.125 7.640625-5.257813.097657-.003906.195313-.007812.289063-.007812 2.210937 0 4.058594 1.179687 5.496094 3.511718 1.34375 2.179688.949218 5.535157-.898438 7.636719-1.894531 2.15625-5.269531 3.203125-8.386719 2.617188-1.714843-.324219-3.089843-1.078125-3.769531-2.070313-1.714844-2.492187-1.148438-4.871094-.371094-6.429687zm0 0"/><path d="m162.6875 369.140625c.765625.667969 1.710938.992187 2.652344.992187 1.121094 0 2.238281-.464843 3.035156-1.378906 1.464844-1.675781 1.292969-4.222656-.382812-5.6875-9.105469-7.957031-18.113282-16.261718-26.773438-24.683594-1.59375-1.550781-4.148438-1.519531-5.699219.078126-1.550781 1.597656-1.515625 4.148437.078125 5.703124 8.761719 8.519532 17.878906 16.925782 27.089844 24.976563zm0 0"/><path d="m143.152344 385.335938c.75.613281 1.652344.914062 2.554687.914062 1.164063 0 2.320313-.503906 3.117188-1.476562 1.414062-1.722657 1.164062-4.261719-.558594-5.671876-8.246094-6.765624-16.269531-14-23.84375-21.511718-1.582031-1.566406-4.132813-1.554688-5.703125.027344-1.566406 1.578124-1.554688 4.132812.027344 5.699218 7.753906 7.6875 15.964844 15.097656 24.40625 22.019532zm0 0"/><path d="m128.535156 404.183594c1.242188 0 2.464844-.574219 3.253906-1.648438 1.320313-1.796875.929688-4.320312-.867187-5.636718-8.167969-5.988282-16.121094-12.476563-23.640625-19.285157-1.648438-1.492187-4.199219-1.367187-5.691406.28125-1.496094 1.652344-1.371094 4.199219.28125 5.695313 7.71875 6.992187 15.890625 13.660156 24.285156 19.8125.71875.527344 1.550781.78125 2.378906.78125zm0 0"/></svg>