<svg viewBox="0 0 511.99962 511" xmlns="http://www.w3.org/2000/svg"><path d="m511.949219 59.140625c-.367188-3.695313-2.757813-6.886719-6.203125-8.277344l-31.417969-12.691406-12.691406-31.417969c-1.390625-3.445312-4.582031-5.835937-8.28125-6.203125-3.699219-.371093-7.296875 1.34375-9.339844 4.445313l-40.710937 61.769531-6.351563 6.355469c-3.90625 3.902344-3.90625 10.234375 0 14.140625s10.238281 3.90625 14.144531 0l14.140625 14.144531-186.910156 186.910156-14.144531-14.144531 138.144531-138.144531c3.90625-3.90625 3.90625-10.238282 0-14.144532-3.902344-3.902343-10.234375-3.902343-14.140625 0l-86.144531 86.144532-5.457031-52.039063c-.007813-.078125-.015626-.15625-.027344-.234375-1.648438-12.785156-10.53125-22.644531-22.105469-24.53125-10.871094-1.769531-21.234375 3.992188-26.410156 14.675782-.101563.210937-.195313.421874-.285157.640624l-37.761718 94.238282-154.363282 61.859375c-.21875.085937-.429687.179687-.640624.28125-10.683594 5.175781-16.445313 15.542969-14.675782 26.410156 1.882813 11.574219 11.742188 20.460937 24.527344 22.109375.082031.007812.160156.019531.238281.027344l123.054688 12.894531 12.898437 123.054687c.007813.078126.015625.15625.027344.238282 1.644531 12.785156 10.53125 22.640625 22.105469 24.527344 1.304687.210937 2.601562.316406 3.882812.316406 9.398438 0 17.972657-5.589844 22.527344-14.992188.101563-.210937.195313-.421875.28125-.640625l3.523437-8.789062c2.054688-5.125-.4375-10.945313-5.5625-13-5.125-2.054688-10.945312.433593-13.003906 5.5625l-3.371094 8.414062c-.941406 1.835938-2.550781 3.789063-5.0625 3.390625-2.125-.347656-4.820312-2.453125-5.472656-7.242187l-13.730468-130.980469c-.492188-4.699219-4.207032-8.410156-8.902344-8.902344l-130.976563-13.730468c-4.792969-.652344-6.898437-3.351563-7.242187-5.472657-.410156-2.503906 1.554687-4.117187 3.386718-5.0625l157.960938-63.300781c2.535156-1.015625 4.546875-3.027344 5.5625-5.5625l39.207031-97.839844c.945313-1.832031 2.554688-3.78125 5.0625-3.386718 2.125.347656 4.820313 2.453124 5.472657 7.242187l7.132812 68.027344-40.871094 40.867187c-3.90625 3.90625-3.90625 10.238282 0 14.144532l28.285156 28.285156c1.953126 1.949218 4.511719 2.929687 7.070313 2.929687s5.117187-.980469 7.070313-2.929687l40.871093-40.871094 59.664063 6.253906c3.378906.46875 5.15625 2.285156 5.417968 3.890625.203126 1.246094-.585937 2.339844-2.34375 3.253907l-84.910156 34.027343c-2.535156 1.015625-4.542968 3.023438-5.5625 5.5625l-38.0625 94.976563c-2.054687 5.128906.4375 10.949218 5.566406 13.003906 1.21875.488281 2.476563.71875 3.714844.71875 3.964844 0 7.71875-2.375 9.285156-6.28125l36.46875-91.007812 81.316407-32.585938c.21875-.085938.429687-.179688.640625-.28125 9.929687-4.808594 15.277344-14.464844 13.625-24.597656-1.75-10.753906-10.875-19.003906-22.699219-20.527344-.078125-.011719-.160156-.019531-.238281-.027344l-43.683594-4.578125 141.265625-141.261719 61.769531-40.710937c3.101563-2.046875 4.816406-5.644531 4.445313-9.34375zm-71.261719 29.425781-16.753906-16.753906 26.292968-39.902344 7.148438 17.6875c1.015625 2.519532 3.011719 4.511719 5.523438 5.527344l17.691406 7.144531zm0 0"/><path d="m375.574219 118.640625c2.550781 0 5.101562-.972656 7.054687-2.914063l.1875-.1875c3.917969-3.894531 3.933594-10.226562.039063-14.140624-3.898438-3.917969-10.230469-3.933594-14.144531-.039063l-.1875.191406c-3.917969 3.894531-3.933594 10.226563-.039063 14.140625 1.957031 1.964844 4.523437 2.949219 7.089844 2.949219zm0 0"/><path d="m161.332031 308.738281c-3.902343 3.90625-3.902343 10.238281 0 14.144531l28.285157 28.285157c1.953124 1.949219 4.511718 2.925781 7.070312 2.925781 2.5625 0 5.121094-.976562 7.074219-2.925781 3.902343-3.90625 3.902343-10.238281 0-14.144531l-28.285157-28.285157c-3.90625-3.90625-10.238281-3.90625-14.144531 0zm0 0"/><path d="m222.804688 437.734375c-5.125-2.058594-10.949219.421875-13.011719 5.542969l-.101563.25c-2.0625 5.125.421875 10.949218 5.546875 13.011718 1.222657.492188 2.484375.726563 3.726563.726563 3.960937 0 7.710937-2.371094 9.28125-6.273437l.101562-.25c2.0625-5.121094-.421875-10.949219-5.542968-13.007813zm0 0"/></svg>